<svg id="Layer_1" data-name="Layer 1" xmlns="http://www.w3.org/2000/svg" viewBox="0 0 438.39 174.69"><defs><style>.cls-1{fill:#fff;}</style></defs><path class="cls-1" d="M400.69,116a20.63,20.63,0,1,1-41.26,0Z" transform="translate(-80.81 -112.65)"/><path class="cls-1" d="M134.65,212.83c18.51,4.09,42.55,11.78,42.07,37.5,0,11.54-4.56,20.67-13.46,27.16s-19.95,9.86-33.41,9.86c-23.8,0-41.35-10.57-49-28.13l22.35-13q6.14,17.31,26.69,17.31c13.7,0,20.42-4.57,20.42-13.46,0-7.69-10.09-12.26-22.83-15.39-18-4.57-42.31-11.77-41.83-37,0-11.05,4.09-20,12.5-26.68s19-10.1,31.49-10.1c20,0,36.06,9.38,44.47,25L152.2,198.17c-4.09-9.14-11.78-13.7-22.6-13.7-9.85,0-17.54,4.32-17.54,12.73C112.06,205.14,122.16,209.23,134.65,212.83Z" transform="translate(-80.81 -112.65)"/><path class="cls-1" d="M301.73,210.42v73.8h-26V213.06c0-18-10.35-27.88-26.93-27.88-18.27,0-30.53,11.31-30.53,34.62v64.42h-26V116h26v63.47c7.94-12.27,20.19-18.52,37.26-18.52C283.22,160.9,301.73,179.65,301.73,210.42Z" transform="translate(-80.81 -112.65)"/><path class="cls-1" d="M345.32,235.18c3.85,18.27,18.52,28.37,38.46,28.37,13.71,0,24.05-5.05,31-14.9l21.39,12.5c-11.78,17.54-29.33,26.2-52.64,26.2-19.48,0-35.34-6-47.36-17.79q-18-18-18-45.44c0-18,6-32.93,17.79-45,11.78-12.26,27.16-18.27,45.67-18.27,17.55,0,32,6.25,43.27,18.52s17.07,27.4,17.07,45a70.5,70.5,0,0,1-1,10.81ZM415.76,214c-3.6-19.47-17.31-29.56-34.37-29.56-19.24,0-32.7,11.29-36.3,29.56Z" transform="translate(-80.81 -112.65)"/><path class="cls-1" d="M519.19,137.82c-19-1.68-28.37,6.26-28.37,23.81V164h28.37v25H490.82v95.19H464.87V189H446.6V164h18.27v-2.4c0-32.94,18.75-51,54.32-48.8Z" transform="translate(-80.81 -112.65)"/></svg>